<?xml version="1.0" encoding="UTF-8" standalone="no"?>
<svg
   xmlns:dc="http://purl.org/dc/elements/1.1/"
   xmlns:cc="http://creativecommons.org/ns#"
   xmlns:rdf="http://www.w3.org/1999/02/22-rdf-syntax-ns#"
   xmlns:svg="http://www.w3.org/2000/svg"
   xmlns="http://www.w3.org/2000/svg"
   id="svg5803"
   version="1.1"
   preserveAspectRatio="xMidYMid"
   height="26.666"
   width="40">
  <metadata
     id="metadata5809">
    <rdf:RDF>
      <cc:Work
         rdf:about="">
        <dc:format>image/svg+xml</dc:format>
        <dc:type
           rdf:resource="http://purl.org/dc/dcmitype/StillImage" />
        <dc:title></dc:title>
      </cc:Work>
    </rdf:RDF>
  </metadata>
  <defs
     id="defs5807" />
  <path
     style="fill:#f6f6f6"
     id="path5801"
     d="M 39.813,3.053 A 0.302,0.302 0 0 0 39.48,3.118 L 23.235,19.36 a 4.584,4.584 0 0 1 -6.48,0 L 0.51700035,3.118 a 0.3,0.3 0 0 0 -0.334,-0.065 A 0.305,0.305 0 0 0 3.5101415e-7,3.333 v 20 A 3.332,3.332 0 0 0 3.3330004,26.666 H 36.667 A 3.332,3.332 0 0 0 40,23.333 v -20 a 0.302,0.302 0 0 0 -0.187,-0.28 z m -21.288,14.54 a 2.087,2.087 0 0 0 2.947,0 L 37.615,1.45 A 0.83,0.83 0 0 0 37.817,0.598 C 37.633,0.05 37.123,0 36.667,0 H 3.3330004 c -0.458,0 -0.971,0.05 -1.151,0.598 a 0.83,0.83 0 0 0 0.201,0.852 z" />
</svg>
