# Blender v2.81 (sub 16) OBJ File: 'pizza.blend'
# www.blender.org
mtllib pizza.mtl
o Pepperoni-3_Cylinder.001
v -0.148309 0.065605 0.039872
v -0.063309 0.065605 0.062648
v -0.001085 0.065605 0.124872
v 0.021691 0.065605 0.209872
v -0.295534 0.065605 0.124872
v -0.233310 0.065605 0.062648
v -0.300893 0.065605 0.144873
v 0.005571 0.065605 0.270029
v -0.148309 0.086275 0.039872
v -0.063309 0.086275 0.062648
v -0.001085 0.086275 0.124872
v 0.021691 0.086275 0.209872
v -0.300893 0.086275 0.144873
v -0.295534 0.086275 0.124872
v -0.233310 0.086275 0.062648
v 0.005571 0.086275 0.270029
vt 0.750000 0.490000
vt 0.870000 0.457846
vt 0.957846 0.370000
vt 0.990000 0.250000
vt 0.967244 0.165072
vt 0.534588 0.341763
vt 0.542154 0.370000
vt 0.630000 0.457846
vt 0.750000 0.490000
vt 0.630000 0.457846
vt 0.542154 0.370000
vt 0.534588 0.341763
vt 0.967244 0.165072
vt 0.990000 0.250000
vt 0.957846 0.370000
vt 0.870000 0.457846
vn 0.0000 -1.0000 -0.0000
vn 0.0000 1.0000 -0.0000
vn 0.9659 0.0000 -0.2588
vn 0.2588 0.0000 -0.9659
vn 0.9659 0.0000 0.2588
vn -0.2588 0.0000 -0.9659
vn -0.9659 0.0000 -0.2588
vn 0.7071 0.0000 -0.7071
vn -0.3781 0.0000 0.9258
vn -0.7071 0.0000 -0.7071
usemtl None
s off
f 1/1/1 2/2/1 3/3/1 4/4/1 8/5/1 7/6/1 5/7/1 6/8/1
f 9/9/2 15/10/2 14/11/2 13/12/2 16/13/2 12/14/2 11/15/2 10/16/2
f 4/4/3 3/3/3 11/15/3 12/14/3
f 2/2/4 1/1/4 9/9/4 10/16/4
f 8/5/5 4/4/5 12/14/5 16/13/5
f 1/1/6 6/8/6 15/10/6 9/9/6
f 5/7/7 7/6/7 13/12/7 14/11/7
f 3/3/8 2/2/8 10/16/8 11/15/8
f 7/6/9 8/5/9 16/13/9 13/12/9
f 6/8/10 5/7/10 14/11/10 15/10/10
o Pepperoni-2_Cylinder.002
v -0.152648 0.065479 -0.204629
v -0.151804 0.065479 -0.201477
v -0.174579 0.065479 -0.116477
v -0.406804 0.065479 -0.054253
v -0.437563 0.065479 -0.085012
v -0.236804 0.065479 -0.054253
v -0.321804 0.065479 -0.031477
v -0.152648 0.086509 -0.204629
v -0.151804 0.086509 -0.201477
v -0.174579 0.086509 -0.116477
v -0.406804 0.086509 -0.054253
v -0.437563 0.086509 -0.085012
v -0.236804 0.086509 -0.054253
v -0.321804 0.086509 -0.031477
vt 0.000000 0.000000
vt 0.000000 0.000000
vt 0.000000 0.000000
vt 0.000000 0.000000
vt 0.000000 0.000000
vt 0.000000 0.000000
vt 0.000000 0.000000
vt 0.000000 0.000000
vt 0.000000 0.000000
vt 0.000000 0.000000
vt 0.000000 0.000000
vt 0.000000 0.000000
vt 0.000000 0.000000
vt 0.000000 0.000000
vn 0.0000 -1.0000 -0.0000
vn 0.0000 1.0000 -0.0000
vn 0.2588 0.0000 0.9659
vn 0.7071 0.0000 0.7071
vn 0.9659 0.0000 0.2588
vn -0.3871 0.0000 -0.9220
vn -0.2588 0.0000 0.9659
vn -0.7071 0.0000 0.7071
vn 0.9659 0.0000 -0.2588
usemtl None
s off
f 17/17/11 18/18/11 19/19/11 22/20/11 23/21/11 20/22/11 21/23/11
f 24/24/12 28/25/12 27/26/12 30/27/12 29/28/12 26/29/12 25/30/12
f 22/20/13 29/28/13 30/27/13 23/21/13
f 19/19/14 26/29/14 29/28/14 22/20/14
f 18/18/15 25/30/15 26/29/15 19/19/15
f 21/23/16 28/25/16 24/24/16 17/17/16
f 23/21/17 30/27/17 27/26/17 20/22/17
f 20/22/18 27/26/18 28/25/18 21/23/18
f 17/17/19 24/24/19 25/30/19 18/18/19
o Cheese_Circle.000
v -0.647738 0.065271 0.003227
v -0.647738 -0.065271 0.003227
v 0.352506 0.065271 -0.001708
v 0.278038 -0.065271 0.381300
v 0.334134 -0.065271 0.193463
v 0.352506 -0.065271 -0.001708
v 0.332449 -0.065271 -0.196714
v 0.274734 -0.065271 -0.384060
v 0.334134 0.065271 0.193463
v 0.278038 0.065271 0.381300
v 0.332449 0.065271 -0.196714
v 0.274734 0.065271 -0.384060
vt 0.000000 0.000000
vt 0.000000 0.000000
vt 0.000000 0.000000
vt 0.000000 0.000000
vt 0.000000 0.000000
vt 0.000000 0.000000
vt 0.000000 0.000000
vt 0.000000 0.000000
vt 0.000000 0.000000
vt 0.000000 0.000000
vt 0.000000 0.000000
vt 0.000000 0.000000
vn 0.0000 -1.0000 0.0000
vn 0.0000 1.0000 0.0000
vn -0.3871 0.0000 -0.9220
vn -0.3781 0.0000 0.9258
vn 0.9582 0.0000 0.2862
vn 0.9956 0.0000 0.0937
vn 0.9948 0.0000 -0.1023
vn 0.9557 0.0000 -0.2944
usemtl None
s off
f 34/31/20 32/32/20 38/33/20 37/34/20 36/35/20 35/36/20
f 40/37/21 39/38/21 33/39/21 41/40/21 42/41/21 31/42/21
f 38/33/22 32/32/22 31/42/22 42/41/22
f 32/32/23 34/31/23 40/37/23 31/42/23
f 40/37/24 34/31/24 35/36/24 39/38/24
f 39/38/25 35/36/25 36/35/25 33/39/25
f 33/39/26 36/35/26 37/34/26 41/40/26
f 37/34/27 38/33/27 42/41/27 41/40/27
o Crust_Circle.002
v 0.352506 0.065271 -0.001708
v 0.278038 -0.065271 0.381300
v 0.334134 -0.065271 0.193463
v 0.352506 -0.065271 -0.001708
v 0.332449 -0.065271 -0.196714
v 0.274734 -0.065271 -0.384060
v 0.334134 0.065271 0.193463
v 0.278038 0.065271 0.381300
v 0.332449 0.065271 -0.196714
v 0.274734 0.065271 -0.384060
v 0.440257 0.065271 -0.218642
v 0.462520 0.065271 -0.002183
v 0.442127 0.065271 0.214460
v 0.462520 -0.065271 -0.002183
v 0.442127 -0.065271 0.214460
v 0.440257 -0.065271 -0.218642
v 0.375912 -0.065271 -0.427262
v 0.379585 0.065271 0.423628
v 0.375912 0.065271 -0.427262
v 0.379585 -0.065271 0.423628
v 0.332449 0.100286 -0.196714
v 0.352506 0.100286 -0.001708
v 0.334134 0.100286 0.193463
v 0.278038 0.100286 0.381300
v 0.274734 0.100286 -0.384060
v 0.462520 0.100286 -0.002183
v 0.440257 0.100286 -0.218642
v 0.442127 0.100286 0.214460
v 0.379585 0.100286 0.423628
v 0.375912 0.100286 -0.427262
vt 0.000000 0.000000
vt 0.000000 0.000000
vt 0.000000 0.000000
vt 0.000000 0.000000
vt 0.000000 0.000000
vt 0.000000 0.000000
vt 0.000000 0.000000
vt 0.000000 0.000000
vt 0.000000 0.000000
vt 0.000000 0.000000
vt 0.000000 0.000000
vt 0.000000 0.000000
vt 0.000000 0.000000
vt 0.000000 0.000000
vt 0.000000 0.000000
vt 0.000000 0.000000
vt 0.000000 0.000000
vt 0.000000 0.000000
vt 0.000000 0.000000
vt 0.000000 0.000000
vt 0.000000 0.000000
vt 0.000000 0.000000
vt 0.000000 0.000000
vt 0.000000 0.000000
vt 0.000000 0.000000
vt 0.000000 0.000000
vt 0.000000 0.000000
vt 0.000000 0.000000
vt 0.000000 0.000000
vt 0.000000 0.000000
vn -0.9582 0.0000 -0.2862
vn -0.9956 0.0000 -0.0937
vn -0.9948 0.0000 0.1023
vn -0.3927 0.0000 -0.9197
vn 0.0000 -1.0000 -0.0000
vn -0.9557 0.0000 0.2944
vn 0.9556 0.0000 -0.2947
vn 0.9948 0.0000 -0.1023
vn 0.9581 0.0000 0.2865
vn 0.9956 0.0000 0.0937
vn -0.3847 0.0000 0.9230
vn 0.0000 1.0000 0.0000
usemtl None
s off
f 50/43/28 49/44/28 45/45/28 44/46/28
f 49/44/29 43/47/29 46/48/29 45/45/29
f 43/47/30 51/49/30 47/50/30 46/48/30
f 48/51/31 52/52/31 61/53/31 59/54/31
f 47/50/32 48/51/32 59/54/32 58/55/32
f 47/50/33 51/49/33 52/52/33 48/51/33
f 53/56/34 61/53/34 72/57/34 69/58/34
f 44/46/32 45/45/32 57/59/32 62/60/32
f 56/61/35 58/55/35 53/56/35 54/62/35
f 62/60/36 57/59/36 55/63/36 60/64/36
f 58/55/34 59/54/34 61/53/34 53/56/34
f 57/59/37 56/61/37 54/62/37 55/63/37
f 51/49/30 43/47/30 64/65/30 63/66/30
f 61/53/31 52/52/31 67/67/31 72/57/31
f 60/64/36 55/63/36 70/68/36 71/69/36
f 45/45/32 46/48/32 56/61/32 57/59/32
f 50/43/38 44/46/38 62/60/38 60/64/38
f 46/48/32 47/50/32 58/55/32 56/61/32
f 63/66/39 64/65/39 68/70/39 69/58/39
f 64/65/39 65/71/39 70/68/39 68/70/39
f 67/67/39 63/66/39 69/58/39 72/57/39
f 65/71/39 66/72/39 71/69/39 70/68/39
f 43/47/29 49/44/29 65/71/29 64/65/29
f 54/62/35 53/56/35 69/58/35 68/70/35
f 52/52/33 51/49/33 63/66/33 67/67/33
f 49/44/28 50/43/28 66/72/28 65/71/28
f 50/43/38 60/64/38 71/69/38 66/72/38
f 55/63/37 54/62/37 68/70/37 70/68/37
o Pepperoni-1_Cylinder.003
v 0.134318 0.065699 -0.265142
v 0.134318 0.086338 -0.265142
v 0.219318 0.065699 -0.242366
v 0.219318 0.086338 -0.242366
v 0.281542 0.065699 -0.180142
v 0.281542 0.086338 -0.180142
v 0.304318 0.065699 -0.095142
v 0.304318 0.086338 -0.095142
v 0.281542 0.065699 -0.010142
v 0.281542 0.086338 -0.010142
v 0.219318 0.065699 0.052082
v 0.219318 0.086338 0.052082
v 0.134318 0.065699 0.074858
v 0.134318 0.086338 0.074858
v 0.049318 0.065699 0.052082
v 0.049318 0.086338 0.052082
v -0.012906 0.065699 -0.010142
v -0.012906 0.086338 -0.010142
v -0.035682 0.065699 -0.095142
v -0.035682 0.086338 -0.095142
v -0.012906 0.065699 -0.180142
v -0.012906 0.086338 -0.180142
v 0.049318 0.065699 -0.242366
v 0.049318 0.086338 -0.242366
vt 1.000000 0.500000
vt 1.000000 1.000000
vt 0.916667 1.000000
vt 0.916667 0.500000
vt 0.833333 1.000000
vt 0.833333 0.500000
vt 0.750000 1.000000
vt 0.750000 0.500000
vt 0.666667 1.000000
vt 0.666667 0.500000
vt 0.583333 1.000000
vt 0.583333 0.500000
vt 0.500000 1.000000
vt 0.500000 0.500000
vt 0.416667 1.000000
vt 0.416667 0.500000
vt 0.333333 1.000000
vt 0.333333 0.500000
vt 0.250000 1.000000
vt 0.250000 0.500000
vt 0.166667 1.000000
vt 0.166667 0.500000
vt 0.370000 0.457846
vt 0.250000 0.490000
vt 0.130000 0.457846
vt 0.042154 0.370000
vt 0.010000 0.250000
vt 0.042154 0.130000
vt 0.130000 0.042154
vt 0.250000 0.010000
vt 0.370000 0.042154
vt 0.457846 0.130000
vt 0.490000 0.250000
vt 0.457846 0.370000
vt 0.083333 1.000000
vt 0.083333 0.500000
vt 0.000000 1.000000
vt 0.000000 0.500000
vt 0.750000 0.490000
vt 0.870000 0.457846
vt 0.957846 0.370000
vt 0.990000 0.250000
vt 0.957846 0.130000
vt 0.870000 0.042154
vt 0.750000 0.010000
vt 0.630000 0.042154
vt 0.542154 0.130000
vt 0.510000 0.250000
vt 0.542154 0.370000
vt 0.630000 0.457846
vn 0.2588 0.0000 -0.9659
vn 0.7071 0.0000 -0.7071
vn 0.9659 0.0000 -0.2588
vn 0.9659 0.0000 0.2588
vn 0.7071 0.0000 0.7071
vn 0.2588 0.0000 0.9659
vn -0.2588 0.0000 0.9659
vn -0.7071 0.0000 0.7071
vn -0.9659 0.0000 0.2588
vn -0.9659 0.0000 -0.2588
vn 0.0000 1.0000 0.0000
vn -0.7071 0.0000 -0.7071
vn -0.2588 0.0000 -0.9659
vn 0.0000 -1.0000 0.0000
usemtl None
s off
f 73/73/40 74/74/40 76/75/40 75/76/40
f 75/76/41 76/75/41 78/77/41 77/78/41
f 77/78/42 78/77/42 80/79/42 79/80/42
f 79/80/43 80/79/43 82/81/43 81/82/43
f 81/82/44 82/81/44 84/83/44 83/84/44
f 83/84/45 84/83/45 86/85/45 85/86/45
f 85/86/46 86/85/46 88/87/46 87/88/46
f 87/88/47 88/87/47 90/89/47 89/90/47
f 89/90/48 90/89/48 92/91/48 91/92/48
f 91/92/49 92/91/49 94/93/49 93/94/49
f 76/95/50 74/96/50 96/97/50 94/98/50 92/99/50 90/100/50 88/101/50 86/102/50 84/103/50 82/104/50 80/105/50 78/106/50
f 93/94/51 94/93/51 96/107/51 95/108/51
f 95/108/52 96/107/52 74/109/52 73/110/52
f 73/111/53 75/112/53 77/113/53 79/114/53 81/115/53 83/116/53 85/117/53 87/118/53 89/119/53 91/120/53 93/121/53 95/122/53
