<?xml version="1.0" encoding="UTF-8" standalone="no"?>
<svg
   xmlns:dc="http://purl.org/dc/elements/1.1/"
   xmlns:cc="http://creativecommons.org/ns#"
   xmlns:rdf="http://www.w3.org/1999/02/22-rdf-syntax-ns#"
   xmlns:svg="http://www.w3.org/2000/svg"
   xmlns="http://www.w3.org/2000/svg"
   id="svg901"
   version="1.1"
   preserveAspectRatio="xMidYMid"
   height="208.04601"
   width="256">
  <metadata
     id="metadata907">
    <rdf:RDF>
      <cc:Work
         rdf:about="">
        <dc:format>image/svg+xml</dc:format>
        <dc:type
           rdf:resource="http://purl.org/dc/dcmitype/StillImage" />
        <dc:title></dc:title>
      </cc:Work>
    </rdf:RDF>
  </metadata>
  <defs
     id="defs905" />
  <path
     style="fill:#f6f6f6"
     id="path899"
     d="m 256,24.628 c -9.42,4.177 -19.542,7 -30.166,8.27 10.845,-6.5 19.172,-16.793 23.093,-29.057 A 105.183,105.183 0 0 1 215.576,16.586 C 205.995,6.379 192.346,0 177.239,0 c -29.006,0 -52.523,23.516 -52.523,52.52 0,4.117 0.465,8.125 1.36,11.97 -43.65,-2.191 -82.35,-23.1 -108.255,-54.876 -4.52,7.757 -7.11,16.78 -7.11,26.404 0,18.222 9.273,34.297 23.365,43.716 a 52.312,52.312 0 0 1 -23.79,-6.57 c -0.003,0.22 -0.003,0.44 -0.003,0.661 0,25.447 18.104,46.675 42.13,51.5 a 52.592,52.592 0 0 1 -23.718,0.9 c 6.683,20.866 26.08,36.05 49.062,36.475 -17.975,14.086 -40.622,22.483 -65.228,22.483 -4.24,0 -8.42,-0.249 -12.529,-0.734 23.243,14.902 50.85,23.597 80.511,23.597 96.606,0 149.433,-80.031 149.433,-149.435 0,-2.278 -0.05,-4.543 -0.152,-6.795 A 106.749,106.749 0 0 0 256,24.628" />
</svg>
